<?xml version="1.0" encoding="utf-8"?>
<!-- Generator: Adobe Illustrator 23.0.1, SVG Export Plug-In . SVG Version: 6.00 Build 0)  -->
<svg version="1.1" id="Warstwa_2" xmlns="http://www.w3.org/2000/svg" xmlns:xlink="http://www.w3.org/1999/xlink" x="0px" y="0px"
	 viewBox="0 0 459.85 286.66" style="enable-background:new 0 0 459.85 286.66;" xml:space="preserve">
<style type="text/css">
	.st0{fill:#FFFFFF;}
	.st1{fill:url(#SVGID_1_);}
	.st2{fill:url(#SVGID_2_);}
	.st3{fill:url(#SVGID_3_);}
	.st4{fill:url(#SVGID_4_);}
</style>
<g>
	<g>
		<path class="st0" d="M73.44,4.34c0-0.61,0.49-1.15,1.09-1.15h14.81c11.71,0,21.31,9.53,21.31,21.18
			c0,11.78-9.59,21.31-21.31,21.31H74.53c-0.61,0-1.09-0.55-1.09-1.15V4.34z M88.73,36.69c6.86,0,11.84-5.4,11.84-12.32
			c0-6.86-4.98-12.26-11.84-12.26h-5.83v24.58H88.73z"/>
		<path class="st0" d="M118.04,4.34c0-0.61,0.49-1.15,1.15-1.15h25.13c0.67,0,1.15,0.55,1.15,1.15v6.62c0,0.61-0.49,1.15-1.15,1.15
			h-16.81v7.53h13.84c0.61,0,1.15,0.55,1.15,1.15v6.62c0,0.67-0.55,1.15-1.15,1.15h-13.84v8.19h16.81c0.67,0,1.15,0.55,1.15,1.15
			v6.62c0,0.61-0.49,1.15-1.15,1.15H119.2c-0.67,0-1.15-0.55-1.15-1.15V4.34z"/>
		<path class="st0" d="M151.18,39.91l2.85-5.04c0.49-0.79,1.64-0.67,2.06-0.36c0.24,0.12,4.61,3.34,8.62,3.34
			c2.43,0,4.19-1.52,4.19-3.64c0-2.55-2.12-4.49-6.25-6.13c-5.22-2.06-11.78-6.13-11.78-13.41c0-6.01,4.67-12.08,14.02-12.08
			c6.31,0,11.17,3.22,12.99,4.55c0.73,0.42,0.61,1.52,0.36,1.94l-3.1,4.67c-0.42,0.67-1.52,1.21-2.06,0.79
			c-0.55-0.3-4.98-3.64-8.68-3.64c-2.19,0-3.82,1.46-3.82,3.1c0,2.25,1.82,3.95,6.62,5.89c4.73,1.88,12.26,5.58,12.26,13.84
			c0,6.25-5.4,12.56-14.32,12.56c-7.89,0-12.26-3.28-13.66-4.67C150.88,41,150.7,40.76,151.18,39.91z"/>
		<path class="st0" d="M186.87,4.34c0-0.61,0.55-1.15,1.15-1.15h7.28c0.61,0,1.15,0.55,1.15,1.15v40.18c0,0.61-0.55,1.15-1.15,1.15
			h-7.28c-0.61,0-1.15-0.55-1.15-1.15V4.34z"/>
		<path class="st0" d="M225.65,2.64c5.1,0,10.68,2.12,14.81,5.71c0.55,0.42,0.61,1.15,0.12,1.64l-4.8,5.1
			c-0.49,0.42-1.15,0.42-1.64,0.06c-2.31-2.12-4.98-2.91-7.95-2.91c-6.62,0-11.96,5.58-11.96,12.26c0,6.62,5.4,12.08,12.02,12.08
			c1.76,0,3.58-0.24,5.4-0.97v-3.52h-3.82c-0.67,0-1.15-0.49-1.15-1.09v-6.01c0-0.67,0.49-1.15,1.15-1.15h12.2
			c0.61,0,1.09,0.55,1.09,1.15l0.06,16.33c0,0.3-0.24,0.79-0.49,0.97c0,0-6.25,3.95-15.05,3.95c-12.08,0-21.79-9.59-21.79-21.73
			S213.57,2.64,225.65,2.64z"/>
		<path class="st0" d="M249.44,3.67c0-0.61,0.55-1.09,1.15-1.09h1.52l24.22,23.31h0.06V4.34c0-0.61,0.49-1.15,1.15-1.15h7.28
			c0.61,0,1.15,0.55,1.15,1.15v40.85c0,0.61-0.55,1.09-1.15,1.09h-0.97c-0.18,0-0.67-0.18-0.79-0.3l-23.98-24.1h-0.06v22.64
			c0,0.61-0.49,1.15-1.15,1.15h-7.22c-0.61,0-1.15-0.55-1.15-1.15L249.44,3.67z"/>
		<path class="st0" d="M309.83,4.34c0-0.61,0.49-1.15,1.15-1.15h14.14c7.16,0,13.05,4.92,13.05,11.29c0,4.67-4.19,8.07-7.04,9.59
			c3.22,1.34,8.13,4.31,8.13,9.89c0,6.8-6.01,11.71-13.23,11.71h-15.05c-0.67,0-1.15-0.55-1.15-1.15V4.34z M324.03,20.42
			c2.31,0,4.25-1.94,4.25-4.37c0-2.43-1.94-4.13-4.25-4.13h-4.73v8.5H324.03z M324.82,36.99c2.37,0,4.37-1.94,4.37-4.43
			c0-2.43-2.61-4.25-4.98-4.25h-4.92v8.68H324.82z"/>
		<path class="st0" d="M354.62,25.22L341.2,4.94c-0.49-0.79,0-1.76,0.97-1.76h7.89c0.49,0,0.79,0.3,0.97,0.55l8.44,12.44l8.44-12.44
			c0.18-0.24,0.42-0.55,0.97-0.55h7.89c0.97,0,1.46,0.97,0.97,1.76l-13.6,20.21v19.36c0,0.61-0.55,1.15-1.15,1.15h-7.22
			c-0.67,0-1.15-0.55-1.15-1.15V25.22z"/>
	</g>
	<g>
		<linearGradient id="SVGID_1_" gradientUnits="userSpaceOnUse" x1="408.9099" y1="177.9646" x2="408.9099" y2="-53.5982">
			<stop  offset="9.900990e-03" style="stop-color:#1866A4"/>
			<stop  offset="0.0693" style="stop-color:#1B75BC"/>
			<stop  offset="0.1234" style="stop-color:#1677BD"/>
			<stop  offset="0.1769" style="stop-color:#007DC2"/>
			<stop  offset="0.2302" style="stop-color:#0087CA"/>
			<stop  offset="0.2831" style="stop-color:#0095D5"/>
			<stop  offset="0.2921" style="stop-color:#0098D8"/>
			<stop  offset="0.505" style="stop-color:#008BCD"/>
			<stop  offset="0.8317" style="stop-color:#1B75BC"/>
			<stop  offset="0.901" style="stop-color:#1867A6"/>
			<stop  offset="1" style="stop-color:#105286"/>
		</linearGradient>
		<path class="st1" d="M456.75,117.73c0,26.49-18.09,47.94-47.94,47.94c-29.84,0-47.75-21.45-47.75-47.94
			c0-26.3,18.28-47.94,47.57-47.94C437.91,69.79,456.75,91.43,456.75,117.73z M383.82,117.73c0,13.99,8.4,27.05,25,27.05
			c16.6,0,25-13.06,25-27.05c0-13.8-9.7-27.23-25-27.23C392.4,90.5,383.82,103.93,383.82,117.73z"/>
		<linearGradient id="SVGID_2_" gradientUnits="userSpaceOnUse" x1="209.404" y1="177.965" x2="209.404" y2="-53.5985">
			<stop  offset="9.900990e-03" style="stop-color:#1866A4"/>
			<stop  offset="0.0693" style="stop-color:#1B75BC"/>
			<stop  offset="0.1234" style="stop-color:#1677BD"/>
			<stop  offset="0.1769" style="stop-color:#007DC2"/>
			<stop  offset="0.2302" style="stop-color:#0087CA"/>
			<stop  offset="0.2831" style="stop-color:#0095D5"/>
			<stop  offset="0.2921" style="stop-color:#0098D8"/>
			<stop  offset="0.505" style="stop-color:#008BCD"/>
			<stop  offset="0.8317" style="stop-color:#1B75BC"/>
			<stop  offset="0.901" style="stop-color:#1867A6"/>
			<stop  offset="1" style="stop-color:#105286"/>
		</linearGradient>
		<path class="st2" d="M237.35,69.58h21.72v96.09h-21.35l-1.12-16.15c-5.2,10.77-19.49,15.97-29.7,16.15
			c-27.1,0.18-47.15-16.52-47.15-48.64c0-31.56,20.98-48.09,47.71-47.9c12.25,0,23.95,5.76,29.15,14.85L237.35,69.58z
			 M182.39,117.03c0,17.45,12.07,27.85,27.11,27.85c35.65,0,35.65-55.51,0-55.51C194.46,89.36,182.39,99.58,182.39,117.03z"/>
		<path class="st0" d="M223.74,214.59c-6.42-6.05-13.75-8.07-22.37-8.07c-10.63,0-16.5,3.3-16.5,8.99c0,5.87,5.32,9.17,16.87,9.9
			c17.06,1.1,38.69,4.95,38.69,28.98c0,15.96-13.01,29.71-38.87,29.71c-14.3,0-28.6-2.38-41.81-16.14l11-15.95
			c6.41,7.15,21.08,12.47,31.17,12.65c8.44,0.18,16.32-4.22,16.32-10.82c0-6.23-5.14-8.8-17.97-9.54
			c-17.05-1.28-37.41-7.52-37.41-28.06c0-20.91,21.64-28.24,38.14-28.24c14.12,0,24.75,2.75,35.21,11.92L223.74,214.59z"/>
		<path class="st0" d="M379.54,201.06c0,17.42-26.41,17.42-26.41,0C353.14,183.64,379.54,183.64,379.54,201.06z M355.15,225.38
			v58.71h22.37v-58.71H355.15z"/>
		<path class="st0" d="M122.48,187.99v50.73c0,12.4-5.15,22.89-17.73,22.89c-12.59,0-20.41-10.87-20.41-23.27v-50.35h-9.92h-9.92
			v50.35c0,12.4-7.82,23.27-20.4,23.27c-12.59,0-17.74-10.49-17.74-22.89v-50.73H3.1v50.73c0,28.22,13.16,44.63,39.86,44.63
			c12.21,0,23.08-3.82,31.47-17.17c8.39,13.35,19.26,17.17,31.47,17.17c26.7,0,39.86-16.41,39.86-44.63v-50.73H122.48z"/>
		<linearGradient id="SVGID_3_" gradientUnits="userSpaceOnUse" x1="74.4226" y1="177.9645" x2="74.4226" y2="-53.5976">
			<stop  offset="9.900990e-03" style="stop-color:#1866A4"/>
			<stop  offset="0.0693" style="stop-color:#1B75BC"/>
			<stop  offset="0.1234" style="stop-color:#1677BD"/>
			<stop  offset="0.1769" style="stop-color:#007DC2"/>
			<stop  offset="0.2302" style="stop-color:#0087CA"/>
			<stop  offset="0.2831" style="stop-color:#0095D5"/>
			<stop  offset="0.2921" style="stop-color:#0098D8"/>
			<stop  offset="0.505" style="stop-color:#008BCD"/>
			<stop  offset="0.8317" style="stop-color:#1B75BC"/>
			<stop  offset="0.901" style="stop-color:#1867A6"/>
			<stop  offset="1" style="stop-color:#105286"/>
		</linearGradient>
		<path class="st3" d="M26.37,165.67v-50.73c0-12.4,5.15-22.88,17.74-22.88c12.58,0,20.4,10.87,20.4,23.26v50.35h9.92h9.92v-50.35
			c0-12.39,7.82-23.26,20.41-23.26c12.59,0,17.73,10.49,17.73,22.88v50.73h23.27v-50.73c0-28.22-13.15-44.62-39.86-44.62
			c-12.2,0-23.08,3.81-31.47,17.16c-8.39-13.35-19.26-17.16-31.47-17.16c-26.7,0-39.86,16.4-39.86,44.62v50.73H26.37z"/>
		<polygon class="st0" points="276.79,229.99 276.79,187.99 254.42,187.99 254.42,284.09 276.79,284.09 276.79,243.19 
			312.19,284.09 339.14,284.09 339.14,282.43 297.15,236.22 339.14,189.28 339.14,187.99 312.37,187.99 		"/>
		<linearGradient id="SVGID_4_" gradientUnits="userSpaceOnUse" x1="315.4216" y1="177.9646" x2="315.4216" y2="-53.5981">
			<stop  offset="9.900990e-03" style="stop-color:#1866A4"/>
			<stop  offset="0.0693" style="stop-color:#1B75BC"/>
			<stop  offset="0.1234" style="stop-color:#1677BD"/>
			<stop  offset="0.1769" style="stop-color:#007DC2"/>
			<stop  offset="0.2302" style="stop-color:#0087CA"/>
			<stop  offset="0.2831" style="stop-color:#0095D5"/>
			<stop  offset="0.2921" style="stop-color:#0098D8"/>
			<stop  offset="0.505" style="stop-color:#008BCD"/>
			<stop  offset="0.8317" style="stop-color:#1B75BC"/>
			<stop  offset="0.901" style="stop-color:#1867A6"/>
			<stop  offset="1" style="stop-color:#105286"/>
		</linearGradient>
		<polygon class="st4" points="295.43,111.57 295.43,69.58 273.06,69.58 273.06,165.67 295.43,165.67 295.43,124.77 330.82,165.67 
			357.78,165.67 357.78,164.02 315.78,117.81 357.78,70.86 357.78,69.58 331.01,69.58 		"/>
	</g>
</g>
</svg>
