<?xml version="1.0" encoding="UTF-8"?>
<svg width="282px" height="273px" viewBox="0 0 282 273" version="1.1" xmlns="http://www.w3.org/2000/svg" xmlns:xlink="http://www.w3.org/1999/xlink">
    <!-- Generator: Sketch 53 (72520) - https://sketchapp.com -->
    <title>elementy/logo/logo biale</title>
    <desc>Created with Sketch.</desc>
    <g id="elementy/logo/logo-biale" stroke="none" stroke-width="1" fill="none" fill-rule="evenodd">
        <g id="Logo-Biale" fill="#FFFFFF">
            <path d="M52.11,47.68 C53.7076467,46.0271875 55.7865368,44.921246 58.05,44.52 C58.35861,44.4553295 58.6800702,44.5287567 58.929995,44.7210065 C59.1799197,44.9132564 59.3333467,45.2051269 59.35,45.52 L59.56,46.44 C59.74,47.17 59.41,47.58 58.64,47.76 C57.0848141,48.0611126 55.6522456,48.8121679 54.52,49.92 C51.52,52.92 52.07,56.81 54.65,59.38 C57.23,61.95 61.32,62.67 64.32,59.67 C65.5310883,58.3867558 66.3017071,56.7509422 66.52,55 C66.64,54.26 67.03,53.86 67.8,54 L68.72,54.14 C69.025583,54.1555887 69.3098721,54.3012563 69.5010165,54.5401868 C69.692161,54.7791173 69.7718707,55.0884483 69.72,55.39 C69.4531485,57.9125592 68.3226684,60.2653708 66.52,62.05 C62.15,66.43 56.16,66.05 52.06,62 C50.0915808,60.1353854 48.9807338,57.5405355 48.9902007,54.8291941 C48.9996677,52.1178528 50.1286079,49.5308233 52.11,47.68 L52.11,47.68 Z" id="Path"></path>
            <path d="M65.91,37.47 C65.6824401,36.9062686 65.8934559,36.2605601 66.41,35.94 L67.84,34.94 C68.3037007,34.5442304 68.9862993,34.5442304 69.45,34.94 L84.71,45.33 C85.0262109,45.478136 85.2281951,45.7958101 85.2281951,46.145 C85.2281951,46.4941899 85.0262109,46.811864 84.71,46.96 L83.71,47.72 C83.2478742,48.1200179 82.5621258,48.1200179 82.1,47.72 L78.56,45.22 L73,49.3 L74.31,53.4 C74.5909166,53.9866766 74.3621511,54.6905704 73.79,55 L72.79,55.75 C72.5491776,56.0057575 72.1815551,56.0980192 71.8485041,55.9862859 C71.515453,55.8745527 71.2778527,55.5792485 71.24,55.23 L65.91,37.47 Z M76.11,43.39 L71.59,40.16 C70.67,39.46 69.16,38.16 69.16,38.16 L69.16,38.16 C69.16,38.16 69.94,39.99 70.33,41.08 L72,46.42 L76.11,43.39 Z" id="Shape" fill-rule="nonzero"></path>
            <path d="M81.75,29.64 L77.1,32.19 C76.8481481,32.3936245 76.5132766,32.4626686 76.2014213,32.3752696 C75.8895659,32.2878707 75.6393487,32.0548527 75.53,31.75 L75.15,31.06 C74.9429568,30.8037984 74.8753651,30.4620676 74.9692847,30.1463379 C75.0632043,29.8306081 75.3065869,29.5813823 75.62,29.48 L88.05,22.69 C88.3066897,22.4964467 88.6407816,22.4381052 88.9478781,22.533206 C89.2549747,22.6283069 89.497623,22.8652519 89.6,23.17 L89.98,23.85 C90.1742525,24.1039685 90.235347,24.4355144 90.1443778,24.7420411 C90.0534085,25.0485679 89.8213454,25.2931122 89.52,25.4 L84.87,27.94 L92.28,41.52 C92.4873414,41.7748269 92.5562941,42.1152393 92.4644611,42.4306659 C92.372628,42.7460924 92.1317246,42.9962936 91.82,43.1 L90.72,43.7 C90.4629666,43.8978879 90.125915,43.9588053 89.8158744,43.8634082 C89.5058338,43.7680111 89.2613285,43.528153 89.16,43.22 L81.75,29.64 Z" id="Path"></path>
            <path d="M93.62,21.53 C93.4372171,21.2506992 93.4058427,20.8986142 93.5363606,20.591395 C93.6668786,20.2841759 93.9420779,20.0623346 94.27,20 L103.15,16.63 C103.430396,16.4604663 103.776058,16.439054 104.075234,16.5726858 C104.374409,16.7063175 104.589139,16.9780382 104.65,17.3 L104.93,18.03 C105.090927,18.3104462 105.106325,18.651396 104.971331,18.9452061 C104.836337,19.2390163 104.567613,19.4494239 104.25,19.51 L97.63,22.02 L99.46,26.85 L104.6,24.9 C104.877572,24.7305988 105.220179,24.7067408 105.518551,24.8360353 C105.816923,24.9653298 106.033796,25.2316293 106.1,25.55 L106.37,26.27 C106.544118,26.55244 106.566806,26.9028516 106.430565,27.205387 C106.294324,27.5079223 106.016896,27.723182 105.69,27.78 L100.56,29.73 L102.44,34.73 L109.44,32.05 C109.717572,31.8805988 110.060179,31.8567408 110.358551,31.9860353 C110.656923,32.1153298 110.873796,32.3816293 110.94,32.7 L111.22,33.43 C111.389648,33.7118162 111.409853,34.0590393 111.274039,34.3586308 C111.138224,34.6582224 110.86376,34.8718622 110.54,34.93 L101.25,38.47 C100.968131,38.6310193 100.62564,38.6451994 100.331425,38.5080315 C100.037209,38.3708636 99.8278822,38.0994171 99.77,37.78 L93.62,21.53 Z" id="Path"></path>
            <path d="M186.45,17.21 C186.507882,16.8905829 186.717209,16.6191364 187.011425,16.4819685 C187.30564,16.3448006 187.648131,16.3589807 187.93,16.52 L192.93,18.39 C194.154079,18.7594672 195.288043,19.3792312 196.26,20.21 C197.924102,21.8191115 198.400105,24.2991295 197.45,26.41 C196.721385,28.5970953 194.749105,30.1315292 192.45,30.3 L192.45,30.35 C192.558183,30.7399208 192.635093,31.1378493 192.68,31.54 L193.63,38.24 C193.79,39.16 193.24,39.58 192.39,39.24 L191,38.73 C190.445992,38.5577874 190.050935,38.0679169 190,37.49 L189.06,30.14 L185.84,28.93 L183.66,34.72 C183.600963,35.0364054 183.393238,35.3050526 183.101873,35.4418158 C182.810508,35.578579 182.471125,35.5667377 182.19,35.41 L181,35 C180.684728,34.9326396 180.421269,34.7174165 180.292362,34.4219226 C180.163455,34.1264287 180.184914,33.7869122 180.35,33.51 L186.45,17.21 Z M189.94,27.15 C190.709033,27.5034624 191.594103,27.5033234 192.363025,27.1496195 C193.131947,26.7959155 193.707976,26.1239484 193.94,25.31 C194.452063,24.2840968 194.246259,23.0452373 193.43,22.24 C192.889903,21.7513329 192.247659,21.3892168 191.55,21.18 L189.08,20.25 L186.93,26 L189.94,27.15 Z" id="Shape" fill-rule="nonzero"></path>
            <path d="M203.9,24.41 C203.993041,24.0983742 204.231811,23.8514573 204.540141,23.7480176 C204.848472,23.6445778 205.187845,23.6975367 205.45,23.89 L206.58,24.46 C206.889861,24.5590073 207.132201,24.8025441 207.229681,25.1128887 C207.327161,25.4232332 207.267598,25.7615987 207.07,26.02 L199.23,41.52 C199.135865,41.8282793 198.898904,42.0722818 198.593512,42.175401 C198.28812,42.2785202 197.951748,42.2281111 197.69,42.04 L196.55,41.47 C196.240139,41.3709927 195.997799,41.1274559 195.900319,40.8171113 C195.802839,40.5067668 195.862402,40.1684013 196.06,39.91 L203.9,24.41 Z" id="Path"></path>
            <path d="M212.6,28.82 C212.728812,28.5243528 212.992295,28.3089714 213.307655,28.2415358 C213.623016,28.1741003 213.951542,28.2628884 214.19,28.48 L215.44,29.31 C215.947735,29.5916243 216.232874,30.1539823 216.16,30.73 L216.08,43.43 C216.024573,44.5816536 215.911096,45.7297788 215.74,46.87 L215.74,46.87 C215.74,46.87 216.63,45.19 217.27,44.22 L223,35.77 C223.131008,35.4701188 223.400455,35.2533128 223.721426,35.1895175 C224.042396,35.1257221 224.374272,35.2230104 224.61,35.45 L225.61,36.15 C225.909881,36.2810081 226.126687,36.5504554 226.190483,36.8714258 C226.254278,37.1923962 226.15699,37.5242722 225.93,37.76 L216.32,52.2 C216.19003,52.5036582 215.918498,52.7235493 215.594456,52.7875577 C215.270414,52.851566 214.935667,52.7514336 214.7,52.52 L213.46,51.69 C212.96322,51.4095403 212.6863,50.8557 212.76,50.29 L212.76,37.6 C212.76,36.23 213.09,34.15 213.09,34.15 L213.09,34.15 C213.09,34.15 212.2,35.83 211.55,36.8 L205.9,45.26 C205.77214,45.5593056 205.506617,45.7776614 205.188254,45.8453136 C204.869891,45.9129658 204.538521,45.8214497 204.3,45.6 L203.24,44.89 C202.943217,44.7549085 202.73094,44.4836005 202.671208,44.1630359 C202.611475,43.8424713 202.71179,43.5129161 202.94,43.28 L212.6,28.82 Z" id="Path"></path>
            <path d="M239,47.31 C240.661593,48.8647493 241.841705,50.8639984 242.4,53.07 C242.506695,53.375198 242.459253,53.713149 242.272649,53.9771731 C242.086046,54.2411973 241.783308,54.3987138 241.46,54.4 L240.56,54.62 C239.82,54.79 239.42,54.49 239.19,53.72 C238.793208,52.2271668 237.990103,50.8736564 236.87,49.81 C233.77,46.81 229.87,47.43 227.32,50.11 C224.46,53.11 224.58,57.17 227.23,59.71 C228.576447,61.0482619 230.43661,61.7376164 232.33,61.6 L233.86,60 L232.5,58.69 C232.232034,58.5029588 232.072364,58.1967875 232.072364,57.87 C232.072364,57.5432125 232.232034,57.2370412 232.5,57.05 L233.02,56.51 C233.206435,56.2378361 233.515104,56.0751327 233.845,56.0751327 C234.174896,56.0751327 234.483565,56.2378361 234.67,56.51 L237.51,59.24 C237.773833,59.4275839 237.930539,59.7312787 237.930539,60.055 C237.930539,60.3787213 237.773833,60.6824161 237.51,60.87 L231.94,66.68 C231.752416,66.9438329 231.448721,67.100539 231.125,67.100539 C230.801279,67.100539 230.497584,66.9438329 230.31,66.68 L229.81,66.2 C229.27,65.68 229.26,65.13 229.64,64.73 L229.97,64.39 C230.079319,64.2755649 230.196253,64.1686543 230.32,64.07 L230.32,64.07 C228.173076,64.071791 226.11553,63.2105763 224.61,61.68 C222.705625,59.8492576 221.629346,57.3216398 221.629346,54.68 C221.629346,52.0383602 222.705625,49.5107424 224.61,47.68 C226.434824,45.662874 229.006552,44.4816882 231.725723,44.4117721 C234.444895,44.3418559 237.073925,45.3893182 239,47.31 L239,47.31 Z" id="Path"></path>
            <path d="M65.27,242.74 C65.564369,242.299035 66.0026281,241.973875 66.51,241.82 L80.16,237 C80.8760789,236.730698 81.6160477,236.529801 82.37,236.4 L82.37,236.4 C82.37,236.4 81.89,236.12 81.14,235.58 L75.4,231.4 C75.1062765,231.260905 74.8984671,230.987747 74.8427823,230.66756 C74.7870974,230.347372 74.8904834,230.020094 75.12,229.79 L75.58,229.16 C75.7201475,228.863988 75.9963635,228.655364 76.3194201,228.601521 C76.6424767,228.547678 76.971424,228.655442 77.2,228.89 L86.89,235.89 C87.1732525,236.034628 87.3708183,236.30537 87.4221431,236.619241 C87.473468,236.933112 87.3724309,237.252681 87.15,237.48 L86.96,237.75 C86.671744,238.19048 86.2411114,238.518749 85.74,238.68 L72.05,243.51 C71.333488,243.777959 70.5936468,243.978821 69.84,244.11 L69.84,244.11 C69.84,244.11 70.32,244.39 71.07,244.93 L77.31,249.41 C77.6037235,249.549095 77.8115329,249.822253 77.8672177,250.14244 C77.9229026,250.462628 77.8195166,250.789906 77.59,251.02 L77.14,251.65 C76.9988421,251.94838 76.7195337,252.157881 76.3935691,252.209875 C76.0676045,252.26187 75.7369801,252.149659 75.51,251.91 L65.37,244.62 C65.0739877,244.479852 64.8653636,244.203636 64.8115208,243.88058 C64.757678,243.557523 64.8654416,243.228576 65.1,243 L65.27,242.74 Z" id="Path"></path>
            <path d="M89.71,238.91 C89.8077628,238.601825 90.0484872,238.359929 90.3561845,238.260672 C90.6638818,238.161415 91.000582,238.217044 91.26,238.41 L99.67,242.81 C99.9833106,242.907865 100.228645,243.153256 100.326437,243.46659 C100.424229,243.779923 100.362025,244.121298 100.16,244.38 L99.8,245.07 C99.6963767,245.376452 99.4509098,245.613845 99.1411652,245.707165 C98.8314207,245.800486 98.495667,245.738204 98.24,245.54 L92,242.26 L89.61,246.83 L94.48,249.38 C94.7848232,249.478802 95.0238368,249.717697 95.1227894,250.022471 C95.2217421,250.327245 95.1686476,250.660981 94.98,250.92 L94.62,251.61 C94.5245115,251.925021 94.2801065,252.172873 93.9664529,252.272762 C93.6527994,252.372652 93.3100762,252.311784 93.05,252.11 L88.18,249.56 L85.72,254.26 L92.39,257.74 C92.6981754,257.837763 92.9400708,258.078487 93.039328,258.386185 C93.1385853,258.693882 93.0829558,259.030582 92.89,259.29 L92.53,259.98 C92.432135,260.293311 92.1867436,260.538645 91.8734102,260.636437 C91.5600768,260.734229 91.2187023,260.672025 90.96,260.47 L82.16,255.87 C81.8535483,255.766377 81.616155,255.52091 81.5228345,255.211165 C81.429514,254.901421 81.4917961,254.565667 81.69,254.31 L89.71,238.91 Z" id="Path"></path>
            <path d="M104.37,262.44 L105.21,261.76 C105.81,261.3 106.27,261.41 106.82,261.98 C107.675555,263.151942 108.874155,264.029052 110.25,264.49 C112.01,265 113.34,264.43 113.71,263.16 C114.76,259.56 105.71,257.72 107.45,251.83 C108.45,248.5 111.83,247.15 115.45,248.21 C117.187571,248.698783 118.738027,249.69874 119.9,251.08 C120.117409,251.300568 120.230725,251.603207 120.211644,251.912324 C120.192563,252.22144 120.042886,252.507845 119.8,252.7 L119.07,253.43 C118.44,254.09 117.91,253.82 117.44,253.36 C116.649712,252.422536 115.609308,251.728934 114.44,251.36 C112.68,250.85 111.31,251.36 110.93,252.65 C109.93,256.2 118.93,257.87 117.22,263.9 C116.32,266.96 113.29,268.82 109.31,267.66 C107.229218,267.027953 105.397455,265.762498 104.07,264.04 C103.846128,263.807062 103.748586,263.480317 103.808125,263.162773 C103.867664,262.84523 104.076949,262.576015 104.37,262.44 Z" id="Path"></path>
            <path d="M124.42,252.22 C124.442696,251.905629 124.599157,251.616096 124.849693,251.424848 C125.100229,251.233599 125.420768,251.159009 125.73,251.22 L127.47,251.41 C128.076194,251.442233 128.574818,251.898956 128.66,252.5 L131.17,261.64 C131.48,262.85 131.84,264.64 131.84,264.64 L131.84,264.64 C131.84,264.64 132.56,262.99 133.14,261.88 L137.63,253.54 C137.855496,252.96282 138.462054,252.630056 139.07,252.75 L140.78,252.94 C141.09069,252.948759 141.383174,253.088548 141.585135,253.324804 C141.787096,253.56106 141.879682,253.87173 141.84,254.18 L141.28,271.64 C141.309251,271.962801 141.180235,272.279757 140.933862,272.490366 C140.687489,272.700976 140.35432,272.779112 140.04,272.7 L138.8,272.56 C138.486434,272.557231 138.189249,272.419551 137.984387,272.182142 C137.779526,271.944732 137.686835,271.630594 137.73,271.32 L138.11,261.39 C138.18,260.08 138.43,258.39 138.43,258.39 L138.37,258.39 C138.37,258.39 137.55,260.23 136.98,261.31 L133.38,267.66 C133.150483,268.212176 132.569237,268.531861 131.98,268.43 L130.82,268.29 C130.210441,268.278357 129.696662,267.831959 129.6,267.23 L127.54,260.23 C127.23,259.04 126.82,257.04 126.82,257.04 L126.76,257.04 C126.76,257.04 126.61,258.81 126.38,260.09 L124.52,269.86 C124.503857,270.177041 124.349047,270.470923 124.096713,270.663545 C123.84438,270.856166 123.520079,270.928016 123.21,270.86 L121.96,270.72 C121.62868,270.737604 121.310201,270.589732 121.109848,270.325266 C120.909496,270.060801 120.853361,269.714183 120.96,269.4 L124.42,252.22 Z" id="Path"></path>
            <path d="M150.92,253.65 C151.039907,253.062353 151.560289,252.64269 152.16,252.65 L153.93,252.53 C154.533681,252.437272 155.114986,252.797935 155.3,253.38 L162.6,270.38 C162.93,271.17 162.6,271.72 161.74,271.78 L160.47,271.86 C159.86348,271.95165 159.281094,271.586064 159.1,271 L157.45,267 L150.55,267.45 L149.46,271.61 C149.374132,272.226033 148.841891,272.681013 148.22,272.67 L146.95,272.75 C146.09,272.81 145.7,272.31 145.95,271.49 L150.92,253.65 Z M156.37,264.12 L154.27,258.97 C153.87,257.88 153.27,255.97 153.27,255.97 L153.21,255.97 C153.21,255.97 152.9,257.97 152.64,259.06 L151.21,264.45 L156.37,264.12 Z" id="Shape" fill-rule="nonzero"></path>
            <path d="M163.7,252.72 C163.577171,252.423508 163.604106,252.086079 163.772413,251.812827 C163.940721,251.539575 164.229949,251.363704 164.55,251.34 L165.8,251.06 C166.101702,250.939561 166.443107,250.973178 166.715524,251.150149 C166.98794,251.32712 167.157418,251.62539 167.17,251.95 L168.66,258.64 L171.18,258.07 L173.67,250.12 C173.79722,249.559167 174.252292,249.131795 174.82,249.04 L176.15,248.74 C177.04,248.54 177.5,249.07 177.24,249.92 L174.32,258.77 L174.32,258.82 L181.32,266.37 C181.95,267.05 181.73,267.7 180.83,267.9 L179.34,268.23 C178.786807,268.390851 178.191557,268.196403 177.84,267.74 L171.84,261.08 L169.32,261.64 L171,268.9 C171.127378,269.199114 171.1014,269.54148 170.930347,269.817949 C170.759294,270.094417 170.46452,270.270478 170.14,270.29 L168.89,270.57 C168.589419,270.686322 168.2512,270.650639 167.981511,270.474151 C167.711823,270.297664 167.543731,270.002011 167.53,269.68 L163.7,252.72 Z" id="Path"></path>
            <path d="M180.2,248.53 C180.043262,248.248875 180.031421,247.909492 180.168184,247.618127 C180.304947,247.326762 180.573595,247.119037 180.89,247.06 L182.1,246.64 C182.385265,246.491253 182.724674,246.488836 183.012029,246.633504 C183.299384,246.778173 183.499588,247.052257 183.55,247.37 L189.22,263.79 C189.381019,264.071869 189.395199,264.41436 189.258031,264.708575 C189.120864,265.002791 188.849417,265.212118 188.53,265.27 L187.32,265.68 C187.034735,265.828747 186.695326,265.831164 186.407971,265.686496 C186.120616,265.541827 185.920412,265.267743 185.87,264.95 L180.2,248.53 Z" id="Path"></path>
            <path d="M187.54,246 C187.352319,245.735514 187.304554,245.396436 187.411867,245.090395 C187.51918,244.784354 187.768243,244.549359 188.08,244.46 L196.68,240.46 C196.947658,240.268192 197.292588,240.220447 197.602285,240.332337 C197.911981,240.444227 198.146744,240.70141 198.23,241.02 L198.56,241.73 C198.738518,241.997633 198.777377,242.334807 198.664418,242.636032 C198.551458,242.937256 198.300478,243.165741 197.99,243.25 L191.58,246.25 L193.76,250.93 L198.76,248.6 C199.024486,248.412319 199.363564,248.364554 199.669605,248.471867 C199.975646,248.57918 200.210641,248.828243 200.3,249.14 L200.63,249.84 C200.821716,250.109041 200.868185,250.455406 200.754163,250.765466 C200.640141,251.075526 200.380343,251.309264 200.06,251.39 L195.06,253.72 L197.3,258.52 L204.12,255.33 C204.384027,255.146646 204.720098,255.101393 205.02322,255.208377 C205.326342,255.315361 205.559555,255.561539 205.65,255.87 L205.98,256.58 C206.171808,256.847658 206.219553,257.192588 206.107663,257.502285 C205.995773,257.811981 205.73859,258.046744 205.42,258.13 L196.42,262.33 C196.151854,262.512846 195.811648,262.554186 195.507515,262.440882 C195.203381,262.327577 194.973151,262.073721 194.89,261.76 L187.54,246 Z" id="Path"></path>
            <path d="M201.72,239.13 C201.539958,238.878351 201.47423,238.562511 201.538933,238.259929 C201.603636,237.957347 201.792786,237.696009 202.06,237.54 L203.5,236.54 C203.965221,236.148376 204.644779,236.148376 205.11,236.54 L213.04,241.73 C214.04,242.43 215.51,243.53 215.51,243.53 L215.51,243.53 C215.51,243.53 214.96,241.81 214.66,240.6 L212.51,231.37 C212.298798,230.791198 212.529919,230.144058 213.06,229.83 L214.47,228.83 C214.706601,228.625399 215.019699,228.532305 215.32965,228.574397 C215.639601,228.616489 215.916532,228.789711 216.09,229.05 L227.21,242.51 C227.448212,242.731397 227.563885,243.054802 227.520123,243.377054 C227.47636,243.699305 227.278628,243.980149 226.99,244.13 L225.99,244.84 C225.753791,245.043282 225.441285,245.134622 225.132779,245.09055 C224.824272,245.046477 224.549842,244.87129 224.38,244.61 L218.09,236.92 C217.28,235.92 216.32,234.43 216.32,234.43 L216.27,234.43 C216.27,234.43 216.87,236.35 217.16,237.54 L218.66,244.68 C218.857611,245.24718 218.627412,245.874995 218.11,246.18 L217.11,246.85 C216.640099,247.239118 215.959901,247.239118 215.49,246.85 L209.38,243 C208.38,242.32 206.73,241.09 206.73,241.09 L206.73,241.09 C206.73,241.09 207.79,242.52 208.47,243.63 L213.53,252.19 C213.716438,252.439586 213.786018,252.757523 213.720874,253.062168 C213.65573,253.366813 213.462207,253.628489 213.19,253.78 L212.19,254.5 C211.950158,254.716543 211.620463,254.803847 211.304885,254.734381 C210.989307,254.664914 210.726745,254.447238 210.6,254.15 L201.72,239.13 Z" id="Path"></path>
            <path d="M219,132.41 C214.376673,101.818021 191.265826,77.3005997 161,70.88 C157.928878,70.3451064 154.98687,72.3419974 154.350103,75.3936244 C153.713335,78.4452515 155.611246,81.4520636 158.64,82.19 C184.185862,87.5980481 203.694354,108.290201 207.59,134.11 C207.88,136.02 208.08,137.93 208.18,139.78 C209.977784,171.584221 187.557075,199.647284 156.140718,204.915393 C124.724361,210.183503 94.3758513,190.969142 85.7007206,160.318162 C77.0255898,129.667182 92.8027136,97.3979077 122.32,85.42 L122.32,85.42 L122.45,85.42 C122.89,85.26 123.34,85.1 123.78,84.92 L123.78,84.92 L123.88,84.92 L124.39,84.73 L124.48,84.73 L124.6,84.73 C130.085742,82.4524847 135.276599,79.5212955 140.06,76 C141.79,74.76 143.52,73.4 145.19,72 C147.841494,69.7083838 150.327689,67.2322133 152.63,64.59 C154.276993,62.7138911 155.822531,60.7510913 157.26,58.71 C166.954328,45.0241519 171.72058,28.4550814 170.78,11.71 C170.65,9.51 170.41,7.25 170.08,4.99 C170.08,4.99 170.08,4.99 170.08,4.99 C170.044168,4.78672231 169.994043,4.5862249 169.93,4.39 C169.890627,4.20721568 169.84054,4.02690454 169.78,3.85 C169.72,3.7 169.64,3.57 169.57,3.43 C169.483334,3.23832175 169.386531,3.05139082 169.28,2.87 C169.164622,2.69504768 169.037672,2.52800822 168.9,2.37 C168.8,2.24 168.71,2.11 168.6,1.99 C168.442938,1.82966023 168.275941,1.67936322 168.1,1.54 C167.995019,1.44090819 167.884864,1.34744405 167.77,1.26 C167.593458,1.1390587 167.409792,1.02885922 167.22,0.93 C167.085546,0.843614383 166.945202,0.766759379 166.8,0.7 C166.623013,0.617028686 166.438943,0.550094024 166.25,0.5 C166.086504,0.434404707 165.919596,0.377655977 165.75,0.33 C165.55508,0.289496426 165.358131,0.259453464 165.16,0.24 C164.99,0.24 164.82,0.18 164.64,0.17 C164.403569,0.155062106 164.166431,0.155062106 163.93,0.17 C163.8,0.17 163.67,0.17 163.54,0.17 L163.54,0.17 C163.336722,0.205832243 163.136225,0.255956598 162.94,0.32 C162.754247,0.360663231 162.570678,0.410727626 162.39,0.47 L162.39,0.47 C138.239416,9.89492428 120.761306,31.2439997 116.29,56.78 C116.026084,58.2880933 116.373426,59.8392082 117.255304,61.0907231 C118.137181,62.3422381 119.481026,63.1911698 120.99,63.45 C121.425641,63.5257979 121.868393,63.5526314 122.31,63.53 C124.9915,63.3700383 127.210818,61.3867305 127.67,58.74 C129.673746,46.9281781 135.037593,35.9435753 143.12,27.1 C147.793441,22.0356317 153.266128,17.772341 159.32,14.48 C159.678669,27.9042836 155.644224,41.078556 147.83,52 C146.616403,53.7349341 145.31122,55.403967 143.92,57 C141.982564,59.2340841 139.887174,61.3261327 137.65,63.26 C136.24,64.47 134.78,65.62 133.3,66.68 C129.271646,69.5908433 124.906763,72.004959 120.3,73.87 L119.58,74.14 C119.07,74.31 118.58,74.51 118.06,74.71 L117.84,74.81 C107.052198,79.194058 97.4567428,86.0719432 89.84,94.88 C68.018861,120.095177 65.7580387,156.790188 84.3188179,184.493341 C102.879597,212.196494 137.676318,224.063398 169.29632,213.473654 C200.916322,202.883909 221.54751,172.453838 219.68,139.16 C219.56,136.92 219.32,134.66 219,132.41 Z" id="Path"></path>
            <path d="M108.82,143.37 C108.815955,158.311745 117.813532,171.784478 131.616744,177.505239 C145.419955,183.226 161.310147,180.068039 171.876987,169.50406 C182.443826,158.940081 185.606089,143.050744 179.889066,129.245985 C174.172042,115.441225 160.701745,106.440001 145.76,106.44 C125.376196,106.473018 108.858537,122.986206 108.82,143.37 Z M171.14,143.37 C171.144045,153.636161 164.962972,162.893698 155.479437,166.825191 C145.995901,170.756684 135.077871,168.587748 127.817168,161.329906 C120.556466,154.072064 118.383227,143.154889 122.310982,133.669806 C126.238737,124.184722 135.493838,118.000001 145.76,118 C159.766236,118.016519 171.117961,129.363772 171.14,143.37 Z" id="Shape" fill-rule="nonzero"></path>
            <path d="M24.64,118 C38.43,118 46.13,127.8 46.13,141.12 C46.045269,143.350027 44.2313526,145.124415 42,145.16 L12.37,145.16 C13.13,153.91 19.6,158.47 26.92,158.47 C30.6286763,158.411764 34.2489151,157.328461 37.38,155.34 C39.76,154.19 41.47,154.48 42.71,156.67 L43.85,158.57 C44.99,160.76 44.61,162.66 42.52,163.9 C37.6047097,167.045813 31.8957288,168.727985 26.06,168.75 C10,168.75 0,157.14 0,143.35 C0,128.42 10.08,118 24.64,118 Z M34.15,137.88 C33.96,131.13 29.87,127.13 24.35,127.13 C18.17,127.13 13.79,131.41 12.65,137.88 L34.15,137.88 Z" id="Shape" fill-rule="nonzero"></path>
            <path d="M246.29,158.38 L247.43,156.67 C248.86,154.67 250.43,154.48 252.85,155.72 C255.27,156.96 258.75,159.04 263.7,159.04 C267.88,159.04 270.45,157.14 270.45,154.1 C270.45,146.2 246.39,149.15 246.39,132.51 C246.39,122.99 254.76,117.95 264.93,117.95 C269.663467,117.923305 274.321369,119.136911 278.44,121.47 C280.63,122.61 280.91,124.61 279.87,126.8 L278.92,128.51 C277.78,130.79 275.97,131.08 273.59,130.03 C270.72895,128.559241 267.57551,127.746111 264.36,127.65 C260.18,127.65 257.8,129.37 257.8,132.41 C257.8,140.41 281.87,137.26 281.87,153.81 C281.87,162.37 274.64,168.75 263.41,168.75 C257.641941,168.783414 252.000921,167.056571 247.24,163.8 C245.05,162.57 244.86,160.47 246.29,158.38 Z" id="Path"></path>
        </g>
    </g>
</svg>